<svg width="30" height="30" viewBox="0 0 30 30" fill="none" xmlns="http://www.w3.org/2000/svg">
<path d="M24 0H6C2.68629 0 0 2.68629 0 6V24C0 27.3137 2.68629 30 6 30H24C27.3137 30 30 27.3137 30 24V6C30 2.68629 27.3137 0 24 0Z" fill="#313131"/>
<path fill-rule="evenodd" clip-rule="evenodd" d="M16.4305 16.9675C17.7919 16.4052 18.75 15.0645 18.75 13.5C18.75 11.4289 17.0711 9.75 15 9.75C12.9289 9.75 11.25 11.4289 11.25 13.5C11.25 15.0645 12.2081 16.4052 13.5695 16.9675C12.1752 17.1998 10.8926 17.7657 9.80859 18.5802L11.1901 20.419C12.2514 19.6217 13.569 19.1496 15.0001 19.1496C16.4312 19.1496 17.7488 19.6217 18.8101 20.419L20.1916 18.5802C19.1075 17.7657 17.8249 17.1997 16.4305 16.9675Z" fill="white"/>
</svg>
